/* XPM */
static char *f0f9a999e54c45d0fb5e53dcbf8b28da5cB7ePWplnfQ863y[] = {
/* columns rows colors chars-per-pixel */
"64 64 2 1 ",
"  c ForestGreen",
". c LimeGreen",
/* pixels */
"      ......      ......      ......      ......      ......    ",
"      ......      ......      ......      ......      ......    ",
"      ......      ......      ......      ......      ......    ",
"      ......      ......      ......      ......      ......    ",
"      ......      ......      ......      ......      ......    ",
"      ......      ......      ......      ......      ......    ",
"......      ......      ......      ......      ......      ....",
"......      ......      ......      ......      ......      ....",
"......      ......      ......      ......      ......      ....",
"......      ......      ......      ......      ......      ....",
"......      ......      ......      ......      ......      ....",
"......      ......      ......      ......      ......      ....",
"      ......      ......      ......      ......      ......    ",
"      ......      ......      ......      ......      ......    ",
"      ......      ......      ......      ......      ......    ",
"      ......      ......      ......      ......      ......    ",
"      ......      ......      ......      ......      ......    ",
"      ......      ......      ......      ......      ......    ",
"......      ......      ......      ......      ......      ....",
"......      ......      ......      ......      ......      ....",
"......      ......      ......      ......      ......      ....",
"......      ......      ......      ......      ......      ....",
"......      ......      ......      ......      ......      ....",
"......      ......      ......      ......      ......      ....",
"      ......      ......      ......      ......      ......    ",
"      ......      ......      ......      ......      ......    ",
"      ......      ......      ......      ......      ......    ",
"      ......      ......      ......      ......      ......    ",
"      ......      ......      ......      ......      ......    ",
"      ......      ......      ......      ......      ......    ",
"......      ......      ......      ......      ......      ....",
"......      ......      ......      ......      ......      ....",
"......      ......      ......      ......      ......      ....",
"......      ......      ......      ......      ......      ....",
"......      ......      ......      ......      ......      ....",
"......      ......      ......      ......      ......      ....",
"      ......      ......      ......      ......      ......    ",
"      ......      ......      ......      ......      ......    ",
"      ......      ......      ......      ......      ......    ",
"      ......      ......      ......      ......      ......    ",
"      ......      ......      ......      ......      ......    ",
"      ......      ......      ......      ......      ......    ",
"......      ......      ......      ......      ......      ....",
"......      ......      ......      ......      ......      ....",
"......      ......      ......      ......      ......      ....",
"......      ......      ......      ......      ......      ....",
"......      ......      ......      ......      ......      ....",
"......      ......      ......      ......      ......      ....",
"      ......      ......      ......      ......      ......    ",
"      ......      ......      ......      ......      ......    ",
"      ......      ......      ......      ......      ......    ",
"      ......      ......      ......      ......      ......    ",
"      ......      ......      ......      ......      ......    ",
"      ......      ......      ......      ......      ......    ",
"......      ......      ......      ......      ......      ....",
"......      ......      ......      ......      ......      ....",
"......      ......      ......      ......      ......      ....",
"......      ......      ......      ......      ......      ....",
"......      ......      ......      ......      ......      ....",
"......      ......      ......      ......      ......      ....",
"      ......      ......      ......      ......      ......    ",
"      ......      ......      ......      ......      ......    ",
"      ......      ......      ......      ......      ......    ",
"      ......      ......      ......      ......      ......    "
};
