/* XPM */
static char *c5ab174b5483470bab702b2b8af8fdb8Du5BfaWoPtr09zuI[] = {
/* columns rows colors chars-per-pixel */
"64 64 2 1 ",
"  c #A9A9A9",
". c LightGray",
/* pixels */
"          ..........          ..........          ..........    ",
"          ..........          ..........          ..........    ",
"          ..........          ..........          ..........    ",
"          ..........          ..........          ..........    ",
"          ..........          ..........          ..........    ",
"          ..........          ..........          ..........    ",
"          ..........          ..........          ..........    ",
"          ..........          ..........          ..........    ",
"          ..........          ..........          ..........    ",
"          ..........          ..........          ..........    ",
"..........          ..........          ..........          ....",
"..........          ..........          ..........          ....",
"..........          ..........          ..........          ....",
"..........          ..........          ..........          ....",
"..........          ..........          ..........          ....",
"..........          ..........          ..........          ....",
"..........          ..........          ..........          ....",
"..........          ..........          ..........          ....",
"..........          ..........          ..........          ....",
"..........          ..........          ..........          ....",
"          ..........          ..........          ..........    ",
"          ..........          ..........          ..........    ",
"          ..........          ..........          ..........    ",
"          ..........          ..........          ..........    ",
"          ..........          ..........          ..........    ",
"          ..........          ..........          ..........    ",
"          ..........          ..........          ..........    ",
"          ..........          ..........          ..........    ",
"          ..........          ..........          ..........    ",
"          ..........          ..........          ..........    ",
"..........          ..........          ..........          ....",
"..........          ..........          ..........          ....",
"..........          ..........          ..........          ....",
"..........          ..........          ..........          ....",
"..........          ..........          ..........          ....",
"..........          ..........          ..........          ....",
"..........          ..........          ..........          ....",
"..........          ..........          ..........          ....",
"..........          ..........          ..........          ....",
"..........          ..........          ..........          ....",
"          ..........          ..........          ..........    ",
"          ..........          ..........          ..........    ",
"          ..........          ..........          ..........    ",
"          ..........          ..........          ..........    ",
"          ..........          ..........          ..........    ",
"          ..........          ..........          ..........    ",
"          ..........          ..........          ..........    ",
"          ..........          ..........          ..........    ",
"          ..........          ..........          ..........    ",
"          ..........          ..........          ..........    ",
"..........          ..........          ..........          ....",
"..........          ..........          ..........          ....",
"..........          ..........          ..........          ....",
"..........          ..........          ..........          ....",
"..........          ..........          ..........          ....",
"..........          ..........          ..........          ....",
"..........          ..........          ..........          ....",
"..........          ..........          ..........          ....",
"..........          ..........          ..........          ....",
"..........          ..........          ..........          ....",
"          ..........          ..........          ..........    ",
"          ..........          ..........          ..........    ",
"          ..........          ..........          ..........    ",
"          ..........          ..........          ..........    "
};
